<svg xmlns="http://www.w3.org/2000/svg" viewBox="0 0 1920 1080" fill="none">
  <defs>
    <radialGradient id="a" cx="0" cy="0" r="1" gradientTransform="translate(1230 500) rotate(105) scale(760 1040)" gradientUnits="userSpaceOnUse"><stop stop-color="#91C8E5" stop-opacity=".7"/><stop offset=".28" stop-color="#304B74" stop-opacity=".5"/><stop offset=".71" stop-color="#0C1323" stop-opacity=".22"/><stop offset="1" stop-color="#05070B" stop-opacity="0"/></radialGradient>
    <linearGradient id="b" x1="1780" y1="170" x2="960" y2="880" gradientUnits="userSpaceOnUse"><stop stop-color="#C3FF4B" stop-opacity=".9"/><stop offset=".45" stop-color="#4B8FB5" stop-opacity=".23"/><stop offset="1" stop-color="#030509" stop-opacity="0"/></linearGradient>
    <filter id="blur"><feGaussianBlur stdDeviation="30"/></filter>
  </defs>
  <rect width="1920" height="1080" fill="#070A10"/><rect width="1920" height="1080" fill="url(#a)"/>
  <path d="M837 1079C1027 755 1087 279 1790 0H1920v1080H837Z" fill="url(#b)" opacity=".52"/>
  <g opacity=".75" filter="url(#blur)"><circle cx="1290" cy="337" r="75" fill="#E0FF70"/><circle cx="1452" cy="586" r="44" fill="#5B95ED"/><circle cx="1086" cy="612" r="58" fill="#8DDAF5"/></g>
  <g stroke="#D5FF5E" stroke-width="1.4" opacity=".35"><path d="M1114 1030 1305 0"/><path d="m976 1080 477-1080"/><path d="m1324 1080 110-1080"/></g>
  <g fill="#DCFF67"><circle cx="1187" cy="164" r="2"/><circle cx="1384" cy="284" r="3"/><circle cx="1136" cy="396" r="1.5"/><circle cx="1524" cy="508" r="2"/><circle cx="964" cy="622" r="2"/><circle cx="1399" cy="795" r="2.6"/></g>
</svg>
